<?xml version="1.0" encoding="UTF-8"?>
<svg width="10px" height="10px" viewBox="-5 -5 10 10" version="1.1" xmlns="http://www.w3.org/2000/svg" xmlns:xlink="http://www.w3.org/1999/xlink">
    <title>Pieces</title>
    <g id="Pieces" stroke="none" stroke-width="1" fill="none" fill-rule="evenodd">
        <g id="pawn" transform="translate(-2.000000, -2.000000)" stroke="#000000">
            <circle id="base" stroke-width="0.6" cx="2" cy="2" r="2.3"></circle>
            <circle id="head" stroke-width="0.4" cx="2" cy="2" r="1.3"></circle>
        </g>
        <g id="rook" transform="translate(-3.000000, -3.000000)" stroke="#000000">
            <circle id="base" stroke-width="0.6" cx="3" cy="3" r="3.3"></circle>
            <path d="M3,4.75 C3.96649831,4.75 4.75,3.96649831 4.75,3 C4.75,2.03350169 3.96649831,1.25 3,1.25 C2.03350169,1.25 1.25,2.03350169 1.25,3 C1.25,3.96649831 2.03350169,4.75 3,4.75 Z" id="head" stroke-width="0.4" stroke-linecap="round" stroke-linejoin="round" stroke-dasharray="1,1"></path>
        </g>
        <g id="knight" transform="translate(-4.000000, -4.000000)" stroke="#000000">
            <circle id="base" stroke-width="0.6" cx="4" cy="4" r="2.8"></circle>
            <rect id="Rectangle" stroke-width="0.4" fill="#FFFFFF" transform="translate(3.000000, 3.000000) rotate(45.000000) translate(-3.000000, -3.000000) " x="0.3" y="1.8" width="5.4" height="2.4" rx="0.8"></rect>
        </g>
        <g id="bishop" transform="translate(-3.000000, -3.000000)" stroke="#000000">
            <circle id="base" stroke-width="0.6" cx="3" cy="3" r="3.3"></circle>
            <ellipse id="head" stroke-width="0.4" cx="2.9999995" cy="2.999998" rx="1.8666665" ry="1.866665"></ellipse>
            <line x1="1.5" y1="3.5" x2="3.5" y2="1.5" id="Line" stroke-width="0.6" stroke-linecap="round" stroke-linejoin="bevel"></line>
        </g>
        <g id="queen" transform="translate(-4.000000, -4.000000)" stroke="#000000">
            <circle id="base" stroke-width="0.6" cx="4" cy="4" r="3.8"></circle>
            <path d="M4,1.05538963 L4.8531028,1.65611932 L5.89275906,1.74429759 L6.16013212,2.75284714 L6.89987513,3.48867377 L6.45641161,4.43313164 L6.55010739,5.47230519 L5.60330881,5.91074904 L5.00711606,6.76702864 L4,6.49430572 L2.99288394,6.76702864 L2.39669119,5.91074904 L1.44989261,5.47230519 L1.54358839,4.43313164 L1.10012487,3.48867377 L1.83986788,2.75284714 L2.10724094,1.74429759 L3.1468972,1.65611932 L4,1.05538963 Z" id="Star" stroke-width="0.4" stroke-linejoin="round"></path>
            <circle id="Oval" stroke-width="0.4" cx="4" cy="4" r="1.6"></circle>
        </g>
        <g id="king" transform="translate(-4.000000, -4.000000)" stroke="#000000">
            <circle id="base" stroke-width="0.6" cx="4" cy="4" r="3.8"></circle>
            <path d="M3.87528762,1.73338215 C4.09692284,1.60542099 4.36737361,1.56201082 4.63410666,1.63348173 C4.90083971,1.70495263 5.11335186,1.87777232 5.24131302,2.09940755 C5.36927418,2.32104278 5.41268435,2.59149355 5.34121344,2.8582266 C5.92614454,3.48083269 6.13865669,3.65365239 6.26661785,3.87528762 C6.39457901,4.09692284 6.43798918,4.36737361 6.36651827,4.63410666 C6.29504737,4.90083971 6.12222768,5.11335186 5.90059245,5.24131302 C5.67895722,5.36927418 5.40850645,5.41268435 5.1417734,5.34121344 C4.51916731,5.92614454 4.34634761,6.13865669 4.12471238,6.26661785 C3.90307716,6.39457901 3.63262639,6.43798918 3.36589334,6.36651827 C3.09916029,6.29504737 2.88664814,6.12222768 2.75868698,5.90059245 C2.63072582,5.67895722 2.58731565,5.40850645 2.65878656,5.1417734 C2.07385546,4.51916731 1.86134331,4.34634761 1.73338215,4.12471238 C1.60542099,3.90307716 1.56201082,3.63262639 1.63348173,3.36589334 C1.70495263,3.09916029 1.87777232,2.88664814 2.09940755,2.75868698 C2.32104278,2.63072582 2.59149355,2.58731565 2.8582266,2.65878656 C3.48083269,2.07385546 3.65365239,1.86134331 3.87528762,1.73338215 Z" id="Path" stroke-width="0.4"></path>
        </g>
    </g>
</svg>